<?xml version="1.0" encoding="UTF-8" standalone="no"?>
<!-- Created with Inkscape (http://www.inkscape.org/) -->

<svg
   width="75.711281mm"
   height="78.740013mm"
   viewBox="0 0 75.711281 78.740013"
   version="1.1"
   id="svg1"
   inkscape:version="1.4.2 (f4327f4, 2025-05-13)"
   sodipodi:docname="d10.svg"
   xmlns:inkscape="http://www.inkscape.org/namespaces/inkscape"
   xmlns:sodipodi="http://sodipodi.sourceforge.net/DTD/sodipodi-0.dtd"
   xmlns="http://www.w3.org/2000/svg"
   xmlns:svg="http://www.w3.org/2000/svg">
  <sodipodi:namedview
     id="namedview1"
     pagecolor="#ffffff"
     bordercolor="#000000"
     borderopacity="0.25"
     inkscape:showpageshadow="2"
     inkscape:pageopacity="0.0"
     inkscape:pagecheckerboard="0"
     inkscape:deskcolor="#d1d1d1"
     inkscape:document-units="mm"
     inkscape:zoom="1.0022096"
     inkscape:cx="153.16157"
     inkscape:cy="175.11307"
     inkscape:window-width="3440"
     inkscape:window-height="1369"
     inkscape:window-x="-8"
     inkscape:window-y="-8"
     inkscape:window-maximized="1"
     inkscape:current-layer="layer1" />
  <defs
     id="defs1" />
  <g
     inkscape:label="Layer 1"
     inkscape:groupmode="layer"
     id="layer1"
     transform="translate(-64.5295,-102.25081)">
    <path
       d="m 83.553854,102.63887 c -9.701389,0.35278 -14.851945,0.84667 -16.192501,1.55222 -1.305278,0.635 -1.658055,1.72861 -2.328333,6.84389 -0.599723,4.69195 -0.670278,10.08945 -0.176389,22.78945 0.176389,5.04472 0.493889,14.07583 0.705555,20.10833 0.458612,12.77056 1.234723,22.82472 1.869723,24.13 1.058333,2.2225 5.891389,2.54 40.886951,2.75167 l 29.49222,0.17639 0.21167,-2.92806 c 0.21166,-2.89278 0.42333,-7.51417 1.41111,-32.24389 0.91722,-21.62528 0.9525,-24.62389 0.59972,-28.575 -0.45861,-5.32694 -1.05833,-6.87917 -4.30389,-11.25361 l -2.78694,-3.73945 -20.70806,0.0705 c -11.43,0 -24.306391,0.17639 -28.680836,0.3175 z m -6.35,4.09222 c 18.097501,3.98639 30.691666,8.89 30.691666,11.92389 0,1.16417 -5.15055,11.35945 -7.69055,15.16945 -4.339171,6.59694 -9.136949,10.26583 -21.766394,16.75694 -5.820834,2.99861 -9.066389,4.30389 -9.807223,4.02167 -0.740833,-0.28222 -1.234722,-1.5875 -1.728611,-4.48028 -0.635,-3.56306 -0.635,-43.00361 0,-44.48528 0.529167,-1.16417 -0.211667,-1.27 10.301112,1.09361 z m 61.101116,5.85611 c 0.59972,0.98778 0.56444,16.29834 -0.0353,28.29278 -0.88194,18.02695 -1.79917,31.67945 -2.36361,35.20723 -0.28222,1.72861 -1.05833,2.2225 -4.37444,2.78694 -3.21028,0.52917 -23.63612,0.59972 -25.18834,0.0706 -1.69333,-0.56445 -1.905,-1.30528 -0.91722,-3.10445 0.70555,-1.34055 0.77611,-1.65805 0.35278,-2.15194 -0.70556,-0.84667 -3.35139,-2.11667 -6.350005,-3.03389 -3.563056,-1.09361 -8.713611,-1.16417 -9.8425,-0.17639 -0.987778,0.88194 -0.9525,1.69333 0.176388,3.03389 1.446389,1.69333 2.892778,1.19944 2.116667,-0.70556 -0.141111,-0.3175 0,-0.84666 0.282223,-1.23472 0.740833,-1.02306 5.009444,-0.9525 7.443611,0.14111 3.316116,1.48167 4.727226,2.75167 3.704166,3.38667 -0.21167,0.14111 -5.256388,0.70555 -11.218333,1.23472 -5.961945,0.56445 -13.581945,1.30528 -16.933334,1.62278 -4.056945,0.42333 -6.20889,0.49389 -6.455834,0.24694 -0.599722,-0.59972 -1.834445,-8.64305 -1.869723,-12.27666 -0.03528,-4.93889 0.564445,-6.13834 4.409723,-8.99584 6.949723,-5.15055 22.189724,-13.05278 25.223613,-13.05278 1.693333,0 5.609168,2.57528 11.712228,7.76112 1.37583,1.19944 2.54,2.04611 2.54,1.86972 0,-0.14111 -2.78695,-3.06917 -6.17362,-6.45584 -3.38666,-3.38666 -6.173608,-6.35 -6.173608,-6.59694 0,-0.56445 7.690558,-15.98084 9.595558,-19.29695 3.03389,-5.18583 4.40972,-5.85611 15.80444,-7.62 3.77473,-0.59972 8.21973,-1.37583 9.87778,-1.72861 3.21028,-0.67028 3.91584,-0.56444 4.65667,0.77611 z"
       id="path14"
       style="stroke-width:0.0352778" />
    <path
       d="m 83.095243,116.99693 c -1.622778,1.69333 -1.023056,5.22111 1.305278,7.76111 1.622778,1.79916 4.515556,2.39889 6.103056,1.30527 1.834444,-1.27 1.869722,-4.7625 0.07055,-7.23194 -1.411111,-1.94028 -2.963333,-2.82222 -4.938889,-2.82222 -1.305278,0 -1.763889,0.17639 -2.54,0.98778 z m 5.503334,1.09361 c 1.552222,1.02305 3.069167,3.175 3.069167,4.445 0,1.09361 -1.058334,2.57527 -2.116667,2.96333 -2.54,0.88194 -5.326945,-1.41111 -6.067778,-5.00944 -0.388056,-1.76389 -0.352778,-2.04612 0.246944,-2.71639 0.9525,-1.05834 2.8575,-0.91723 4.868334,0.3175 z"
       id="path15"
       style="stroke-width:0.0352778" />
    <path
       d="m 73.499687,125.18137 c -0.917222,0.35278 -2.151945,1.72861 -2.434167,2.71639 -0.352778,1.12889 0.388056,3.52778 1.305278,4.16278 1.340556,0.9525 3.386667,0.67028 5.432778,-0.74084 0.987778,-0.70555 2.116667,-1.19944 2.469445,-1.12888 0.987778,0.17638 1.058333,3.10444 0.141111,4.90361 -0.846667,1.5875 -0.529167,1.79916 0.705555,0.45861 0.705556,-0.74084 0.846667,-1.27 0.846667,-3.06917 0,-1.79917 -0.211667,-2.54 -1.093611,-4.1275 -1.128889,-1.97556 -1.905,-2.61056 -1.905,-1.5875 0,1.19944 -1.5875,3.42195 -3.104445,4.30389 -1.27,0.74083 -1.658055,0.84667 -2.398889,0.52917 -0.987778,-0.45861 -1.093611,-1.41111 -0.3175,-2.8575 0.635,-1.27 2.434167,-2.78695 3.598334,-3.06917 0.635,-0.17639 0.740833,-0.3175 0.388055,-0.52917 -0.564444,-0.38805 -2.681111,-0.35278 -3.633611,0.0353 z"
       id="path16"
       style="stroke-width:0.0352778" />
    <path
       d="m 126.27525,132.80137 c -0.45862,0.3175 -1.02306,1.12889 -1.30528,1.76389 -0.98778,2.36361 -0.49389,4.30389 1.5875,6.27944 0.77611,0.74084 1.09361,1.37584 1.09361,2.18723 0,1.02305 -0.74083,2.25777 -1.34056,2.25777 -0.77611,0 -2.64583,-1.62277 -4.05694,-3.45722 -2.54,-3.28083 -4.05695,-3.95111 -5.43278,-2.46944 -1.76389,1.94028 -2.54,7.26722 -1.41111,9.87778 0.77611,1.86972 3.66889,4.86833 5.43278,5.64444 2.61055,1.16417 3.81,0.0706 4.69194,-4.1275 0.52917,-2.50472 1.19945,-3.70417 2.04611,-3.70417 0.3175,0 1.48167,0.56445 2.54,1.23473 2.25778,1.48166 3.59834,1.55222 4.7625,0.35277 1.44639,-1.41111 1.23473,-3.59833 -0.70555,-7.65527 -0.88195,-1.86973 -1.69333,-4.1275 -1.83445,-5.08 -0.3175,-2.39889 -1.62277,-3.66889 -3.70416,-3.66889 -0.84667,0 -1.905,0.24694 -2.36361,0.56444 z m 3.98638,2.39889 c 0.84667,1.69333 0.45862,3.52778 -0.88194,4.55083 -0.77611,0.56445 -1.05833,0.59972 -1.72861,0.24695 -1.02306,-0.52917 -1.83445,-2.57528 -1.55222,-3.81 0.42333,-1.83445 1.12889,-2.57528 2.36361,-2.46945 0.91722,0.0705 1.27,0.35278 1.79916,1.48167 z m -9.70138,6.42056 c 0.59972,0.49388 1.65805,2.08138 2.36361,3.4925 2.29305,4.62139 2.04611,9.34861 -0.49389,9.34861 -1.83445,0 -4.69195,-2.36361 -5.715,-4.7625 -1.34056,-3.03389 -1.19945,-6.06778 0.38805,-8.07861 0.91723,-1.16417 2.08139,-1.16417 3.45723,0 z m 13.40555,1.05833 c 0.49389,0.635 0.74084,1.44639 0.74084,2.54 0,2.99861 -2.36362,4.19806 -4.55084,2.32833 -0.84667,-0.70555 -1.09361,-1.19944 -1.09361,-2.18722 0.0353,-1.41111 0.38806,-2.08139 1.76389,-2.99861 1.23472,-0.84667 2.29306,-0.74083 3.13972,0.3175 z"
       id="path17"
       style="stroke-width:0.0352778" />
    <path
       d="m 100.13441,161.16471 c -1.41111,0.77611 -4.550833,0.91722 -6.314722,0.3175 -1.5875,-0.56445 -1.658055,-0.24695 -0.388055,1.23472 1.516944,1.69333 3.033889,2.54 5.08,2.82222 0.9525,0.10583 4.092227,1.16417 6.984997,2.32833 2.8575,1.16417 5.60917,2.11667 6.10306,2.11667 0.88194,0 0.88194,-0.0353 0.38806,-1.02306 -0.77612,-1.48166 -6.66751,-7.23194 -8.07862,-7.9375 -1.55222,-0.70555 -2.25777,-0.70555 -3.77472,0.14112 z m 3.84528,0.88194 c 1.16417,0.56444 3.56306,3.24556 3.56306,3.91583 0,0.88195 -0.74084,0.84667 -3.38667,-0.17639 -2.89278,-1.12888 -4.02167,-1.94027 -4.02167,-2.8575 0,-1.41111 1.97556,-1.86972 3.84528,-0.88194 z"
       id="path18"
       style="stroke-width:0.0352778" />
  </g>
</svg>
