<?xml version="1.0" encoding="UTF-8" standalone="no"?>
<!-- Created with Inkscape (http://www.inkscape.org/) -->

<svg
   width="81.773247mm"
   height="83.482742mm"
   viewBox="0 0 81.773247 83.482742"
   version="1.1"
   id="svg1"
   inkscape:version="1.4.2 (f4327f4, 2025-05-13)"
   sodipodi:docname="d10.svg"
   xmlns:inkscape="http://www.inkscape.org/namespaces/inkscape"
   xmlns:sodipodi="http://sodipodi.sourceforge.net/DTD/sodipodi-0.dtd"
   xmlns="http://www.w3.org/2000/svg"
   xmlns:svg="http://www.w3.org/2000/svg">
  <sodipodi:namedview
     id="namedview1"
     pagecolor="#ffffff"
     bordercolor="#000000"
     borderopacity="0.25"
     inkscape:showpageshadow="2"
     inkscape:pageopacity="0.0"
     inkscape:pagecheckerboard="0"
     inkscape:deskcolor="#d1d1d1"
     inkscape:document-units="mm"
     inkscape:zoom="1.0022096"
     inkscape:cx="121.23213"
     inkscape:cy="259.92567"
     inkscape:window-width="3440"
     inkscape:window-height="1369"
     inkscape:window-x="-8"
     inkscape:window-y="-8"
     inkscape:window-maximized="1"
     inkscape:current-layer="layer1" />
  <defs
     id="defs1" />
  <g
     inkscape:label="Layer 1"
     inkscape:groupmode="layer"
     id="layer1"
     transform="translate(-72.917341,-79.609229)">
    <path
       d="m 119.06003,79.926729 c -23.63611,0.987778 -42.01583,2.328334 -42.79195,3.104445 -0.67027,0.670278 -1.76388,12.241389 -2.71638,29.139446 -0.635,10.795 -0.84667,32.73778 -0.38806,36.61834 0.67028,5.715 2.39889,9.8425 4.58611,10.97139 1.5875,0.84666 4.86833,1.23472 13.44084,1.62277 11.32416,0.49389 60.36028,1.86973 60.50139,1.69334 0.0705,-0.10584 0.35278,-6.38528 1.5875,-38.20584 0.38805,-9.91306 0.84666,-21.62528 1.05833,-26.070279 0.17639,-4.445 0.35278,-9.066389 0.35278,-10.230556 v -2.151944 l -2.96333,-2.363612 c -3.38667,-2.751666 -5.11528,-3.633611 -8.32556,-4.1275 -2.54,-0.423333 -14.39333,-0.423333 -24.34167,0 z m -33.16111,4.621389 c 15.83972,3.033889 40.88695,9.101668 42.2275,10.230557 0.88195,0.740833 0.49389,2.681111 -1.23472,5.997225 -3.95111,7.58472 -12.84111,19.43805 -17.63889,23.45972 -3.98639,3.35139 -14.18167,8.5725 -21.94278,11.21833 -6.06778,2.08139 -13.08806,3.81001 -13.54667,3.35139 -0.3175,-0.3175 0,-7.12611 1.5875,-34.21944 0.91722,-16.08667 1.30528,-20.461115 1.79917,-21.060837 0.45861,-0.564445 0.635,-0.564445 8.74889,1.023055 z m 65.61667,2.751667 c 0.45861,0.282222 0.52917,2.716389 0.49389,18.415005 -0.0353,18.13278 -0.42334,30.90333 -1.41111,44.37944 -0.52917,7.54945 -0.88195,9.525 -1.69334,10.19528 -1.09361,0.91722 -8.64305,1.16417 -24.37694,0.77611 -36.79473,-0.91722 -42.65084,-1.48166 -46.95473,-4.37444 -2.29305,-1.51695 -3.38666,-3.66889 -3.59833,-7.12611 -0.21167,-3.59834 0.0705,-4.79778 1.69333,-6.63223 1.19945,-1.37583 2.25778,-1.94027 8.53722,-4.7625 3.95112,-1.76389 10.33639,-4.65666 14.21695,-6.42055 7.97278,-3.66889 14.74611,-6.45584 17.145,-7.09084 1.37583,-0.38805 1.72861,-0.35277 2.43417,0.14112 1.65805,1.16416 10.33639,11.00666 25.68222,29.13944 2.15195,2.57528 3.95111,4.51556 3.95111,4.33917 0,-0.49389 -4.7625,-6.59695 -11.50055,-14.71084 -11.57111,-13.93472 -16.72167,-20.81389 -16.72167,-22.26027 0,-1.79917 4.05694,-11.04195 7.51417,-17.18028 3.73944,-6.596949 7.05555,-9.59556 14.85194,-13.335005 3.81,-1.799166 8.46667,-3.774722 9.03111,-3.81 0.10584,-0.03528 0.42334,0.141111 0.70556,0.3175 z"
       id="path10"
       style="stroke-width:0.0352778" />
    <path
       d="m 88.4742,98.377008 c -2.46945,1.128889 -2.78695,3.633612 -0.9525,7.161392 1.83444,3.4925 4.55083,5.43278 7.58472,5.46805 3.4925,0 5.43278,-2.18722 5.11528,-5.85611 -0.21167,-2.57528 -1.44639,-4.51555 -3.84528,-5.997221 -1.34056,-0.811389 -2.15195,-1.058333 -4.23333,-1.164166 -1.69334,-0.07056 -2.89278,0.03528 -3.66889,0.388055 z m 6.13833,1.305278 c 2.25778,0.599724 3.81,2.257774 4.37444,4.656664 0.35278,1.72861 0.35278,2.08139 -0.24694,3.28084 -1.905,3.91583 -6.6675,2.96333 -9.91306,-1.97556 -2.25777,-3.42194 -1.94027,-4.79778 1.37584,-5.820833 1.905,-0.599722 2.43416,-0.635 4.40972,-0.141111 z"
       id="path11"
       style="stroke-width:0.0352778" />
    <path
       d="m 138.67448,128.43368 c -0.14111,4.19805 -0.17639,7.69055 -0.0706,7.79639 0.21167,0.21166 7.90222,-7.23195 8.39611,-8.11389 0.45861,-0.91723 0,-0.59973 -2.82222,1.76389 -1.19944,1.02305 -2.32833,1.86972 -2.50472,1.86972 -0.59972,0 -1.37583,-1.02306 -1.5875,-2.01084 -0.10583,-0.56444 -0.35278,-2.71638 -0.56445,-4.83305 -0.17638,-2.11667 -0.38805,-3.91583 -0.45861,-3.98639 -0.0705,-0.0706 -0.24694,3.31611 -0.38805,7.51417 z"
       id="path12"
       style="stroke-width:0.0352778" />
    <path
       d="m 105.05475,145.68451 c -1.76389,0.74083 -2.64583,2.43417 -2.46944,4.69195 0.24694,3.42194 2.11667,4.23333 7.47889,3.35138 3.88055,-0.67027 4.90361,-0.45861 5.67972,0.98778 0.49389,0.9525 0.67028,1.05834 1.62278,0.88195 1.76389,-0.35278 4.02167,-1.62278 5.60917,-3.175 1.94027,-1.83445 1.27,-2.01084 -1.76389,-0.42334 -3.28084,1.72861 -4.33917,1.69334 -5.50334,-0.14111 -0.49389,-0.77611 -1.16416,-1.41111 -1.51694,-1.41111 -0.35278,0 -1.72861,0.45861 -3.06917,1.05833 -4.23333,1.79917 -7.23194,1.30528 -7.23194,-1.16416 0,-0.67028 0.52916,-1.37584 2.08139,-2.75167 1.16416,-1.02305 2.04611,-1.97555 1.94027,-2.15194 -0.28222,-0.42334 -1.5875,-0.3175 -2.8575,0.24694 z"
       id="path13"
       style="stroke-width:0.0352778" />
  </g>
</svg>
