<?xml version="1.0" encoding="UTF-8" standalone="no"?>
<!-- Created with Inkscape (http://www.inkscape.org/) -->

<svg
   width="103.71667mm"
   height="91.875809mm"
   viewBox="0 0 103.71667 91.875809"
   version="1.1"
   id="svg1"
   inkscape:version="1.4.2 (f4327f4, 2025-05-13)"
   sodipodi:docname="d12.svg"
   xmlns:inkscape="http://www.inkscape.org/namespaces/inkscape"
   xmlns:sodipodi="http://sodipodi.sourceforge.net/DTD/sodipodi-0.dtd"
   xmlns="http://www.w3.org/2000/svg"
   xmlns:svg="http://www.w3.org/2000/svg">
  <sodipodi:namedview
     id="namedview1"
     pagecolor="#ffffff"
     bordercolor="#000000"
     borderopacity="0.25"
     inkscape:showpageshadow="2"
     inkscape:pageopacity="0.0"
     inkscape:pagecheckerboard="0"
     inkscape:deskcolor="#d1d1d1"
     inkscape:document-units="mm"
     inkscape:zoom="1.0022096"
     inkscape:cx="39.412913"
     inkscape:cy="308.81764"
     inkscape:window-width="3440"
     inkscape:window-height="1369"
     inkscape:window-x="-8"
     inkscape:window-y="-8"
     inkscape:window-maximized="1"
     inkscape:current-layer="layer1" />
  <defs
     id="defs1" />
  <g
     inkscape:label="Layer 1"
     inkscape:groupmode="layer"
     id="layer1"
     transform="translate(-94.456273,-66.674982)">
    <path
       d="m 129.6635,66.865834 c -3.63361,0.458611 -5.715,1.27 -7.69056,3.069167 -1.62278,1.481667 -4.93889,5.3975 -4.93889,5.891389 0,0.105834 7.51417,0.211667 16.72167,0.211667 10.90083,0 16.8275,0.141111 16.96861,0.352778 0.24695,0.423333 1.05834,5.573889 2.78695,18.168056 2.04611,14.922499 2.15194,15.698609 1.5875,16.227779 -0.56445,0.49389 -22.78945,14.21695 -24.55334,15.13417 -2.57528,1.30528 -5.18583,0.45861 -10.16,-3.31611 -5.82083,-4.445 -18.87361,-15.27528 -18.87361,-15.69862 0,-0.24694 2.8575,-6.20888 6.35,-13.229163 3.52778,-7.055556 6.31472,-12.87639 6.20889,-12.946945 -0.17639,-0.176389 -2.68111,4.021667 -5.85611,9.771945 -2.75167,4.903611 -13.758337,26.458333 -13.758337,26.881673 0,0.56444 6.244167,11.43 8.678337,15.16944 3.10444,4.65667 4.445,6.06778 5.60916,5.78556 0.98778,-0.24695 1.12889,0.17639 0.49389,1.76389 -0.91722,2.50472 1.97556,7.44361 6.27945,10.68916 4.7625,3.56306 9.94833,5.36223 18.80305,6.56167 4.02167,0.52917 26.95223,1.37583 32.06751,1.16417 l 2.61055,-0.10584 2.96334,-5.29166 c 14.21694,-25.18834 26.21139,-47.20167 26.21139,-48.1189 0,-0.42333 -6.6675,-11.429996 -12.10028,-19.967219 -2.78695,-4.374445 -6.24417,-9.101667 -6.49111,-8.854723 -0.10584,0.07056 2.89277,5.115278 6.59694,11.183056 10.05417,16.333616 10.58334,17.215556 10.58334,17.850556 0,0.52917 -9.03112,17.21556 -23.88306,44.20306 l -4.16278,7.58472 h -16.05139 c -11.14778,-0.0353 -16.79222,-0.17639 -18.52083,-0.45861 -8.00806,-1.44639 -10.05417,-3.91583 -9.56028,-11.64167 0.28222,-4.23333 1.05833,-9.03111 1.83444,-11.46527 0.77611,-2.36362 2.75167,-4.69195 5.99722,-7.02028 2.57528,-1.83445 19.01473,-12.31195 20.88445,-13.29973 0.74083,-0.38805 1.62278,0 9.525,4.23334 12.10028,6.52639 18.415,9.63083 17.92111,8.81944 -0.35277,-0.52916 -5.96194,-3.81 -14.49916,-8.39611 -4.445,-2.43417 -8.32556,-4.62139 -8.60778,-4.86833 -0.28223,-0.28223 -0.77611,-2.96334 -1.30528,-7.47889 -0.81139,-6.808614 -2.18722,-17.180281 -3.03389,-22.895281 -0.52917,-3.633612 -0.14111,-4.727223 1.97556,-5.750279 3.06916,-1.481666 16.86277,-4.092222 19.79083,-3.739444 l 1.76389,0.211666 -1.05833,-0.917222 c -2.96334,-2.504722 -8.81945,-4.409722 -15.69862,-5.115278 -4.83305,-0.493889 -27.34028,-0.740833 -30.40944,-0.352778 z"
       id="path9"
       style="stroke-width:0.0352778" />
    <path
       d="m 166.95211,86.233335 c 0.38806,0.670278 11.43,3.915834 13.335,3.915834 2.78695,0 -0.74083,-1.516945 -7.40833,-3.210278 -4.09222,-1.023056 -6.31472,-1.305278 -5.92667,-0.705556 z"
       id="path19"
       style="stroke-width:0.0352778" />
    <path
       d="m 132.69739,88.032502 c -1.72861,0.881945 -6.24417,4.233334 -5.67973,4.233334 0.0706,0 1.79917,-0.776111 3.81,-1.763889 3.84528,-1.834445 5.85612,-2.2225 6.6675,-1.234723 0.81139,0.987778 0.14112,3.774723 -2.78694,11.606386 -2.96333,7.9375 -3.88056,10.93612 -3.42194,11.39473 0.38805,0.38805 3.73944,-1.48167 6.91444,-3.84528 1.55222,-1.16417 2.82222,-2.15195 2.82222,-2.25778 0,-0.0705 -0.9525,0.3175 -2.11666,0.91722 -3.45723,1.76389 -4.86834,1.30528 -4.40973,-1.48166 0.14111,-0.84667 1.02306,-3.4925 1.94028,-5.92667 2.11667,-5.538612 2.46945,-6.773334 2.46945,-9.031112 0,-3.704167 -2.2225,-4.621389 -6.20889,-2.610556 z"
       id="path20"
       style="stroke-width:0.0352778" />
    <path
       d="m 177.35906,96.746114 c 0.0353,0.141111 1.05833,1.375833 2.32833,2.751667 2.29306,2.504719 4.37444,5.997219 4.37444,7.408329 0,2.15195 -3.38666,4.16278 -7.12611,4.19806 -2.04611,0.0353 -2.50472,-0.10583 -3.84528,-1.02306 -2.61055,-1.83444 -3.59833,-4.90361 -3.03388,-9.525 0.42333,-3.774718 0.21166,-4.23333 -0.98778,-1.940274 -1.30528,2.540004 -1.37584,5.432774 -0.21167,7.725834 1.76389,3.38667 5.78556,6.70278 8.18445,6.73806 1.41111,0 5.04472,-1.97556 6.45583,-3.52778 1.48167,-1.65806 1.86972,-3.31611 1.23472,-5.57389 -0.35278,-1.27 -0.98778,-2.18722 -2.75166,-3.95111 -2.18723,-2.151947 -4.65667,-3.915836 -4.62139,-3.280836 z"
       id="path21"
       style="stroke-width:0.0352778" />
    <path
       d="m 117.24572,98.263058 c 0.70555,2.575282 6.27944,13.687782 7.40833,14.816672 0.45861,0.45861 0.45861,0.38805 0.14111,-0.70556 -0.59972,-1.79917 -6.24416,-13.088056 -7.09083,-14.111112 l -0.70556,-0.881944 z"
       id="path22"
       style="stroke-width:0.0352778" />
    <path
       d="m 151.42989,130.82445 c -1.37584,0.635 -2.11667,1.48167 -2.96334,3.45722 -1.62277,3.66889 -2.8575,11.7475 -1.97555,12.62945 1.16417,1.16416 7.65528,1.30527 10.65389,0.24694 1.83444,-0.635 2.46944,-1.72861 2.92805,-4.93889 0.21167,-1.55222 0.77612,-3.66889 1.23473,-4.72722 0.49389,-1.05833 0.88194,-2.36361 0.88194,-2.8575 0,-1.16417 -1.41111,-2.61056 -3.24555,-3.38667 -1.90501,-0.77611 -6.20889,-1.02305 -7.51417,-0.42333 z m 5.92666,1.34055 c 0.74084,0.17639 1.83445,0.77612 2.39889,1.30528 1.94028,1.72861 0.49389,2.89278 -3.59833,2.89278 -3.77472,0 -6.06778,-1.30528 -5.18583,-2.92805 0.74083,-1.44639 3.70416,-2.01084 6.38527,-1.27001 z m -3.10444,6.98501 c 0.98778,0.56444 2.36361,1.65805 3.10444,2.46944 2.64584,2.96333 2.01084,4.40972 -2.18722,5.08 -4.30389,0.635 -8.50194,-0.42333 -8.50194,-2.2225 0,-0.98778 2.11666,-4.86833 3.06916,-5.64444 1.23473,-0.9525 2.43417,-0.88195 4.51556,0.3175 z"
       id="path23"
       style="stroke-width:0.0352778" />
  </g>
</svg>
