<?xml version="1.0" encoding="UTF-8" standalone="no"?>
<!-- Created with Inkscape (http://www.inkscape.org/) -->

<svg
   width="118.42986mm"
   height="108.67001mm"
   viewBox="0 0 118.42986 108.67001"
   version="1.1"
   id="svg1"
   inkscape:version="1.4.2 (f4327f4, 2025-05-13)"
   sodipodi:docname="d20.svg"
   xmlns:inkscape="http://www.inkscape.org/namespaces/inkscape"
   xmlns:sodipodi="http://sodipodi.sourceforge.net/DTD/sodipodi-0.dtd"
   xmlns="http://www.w3.org/2000/svg"
   xmlns:svg="http://www.w3.org/2000/svg">
  <sodipodi:namedview
     id="namedview1"
     pagecolor="#ffffff"
     bordercolor="#000000"
     borderopacity="0.25"
     inkscape:showpageshadow="2"
     inkscape:pageopacity="0.0"
     inkscape:pagecheckerboard="0"
     inkscape:deskcolor="#d1d1d1"
     inkscape:document-units="mm"
     inkscape:zoom="1.0022096"
     inkscape:cx="145.17921"
     inkscape:cy="322.78677"
     inkscape:window-width="3440"
     inkscape:window-height="1369"
     inkscape:window-x="-8"
     inkscape:window-y="-8"
     inkscape:window-maximized="1"
     inkscape:current-layer="layer1" />
  <defs
     id="defs1" />
  <g
     inkscape:label="Layer 1"
     inkscape:groupmode="layer"
     id="layer1"
     transform="translate(-66.410445,-62.970804)">
    <path
       d="m 112.90656,63.161641 c -0.0706,0.141111 -3.24556,3.069167 -7.02028,6.420556 C 93.397947,80.729975 70.820168,101.12053 68.597668,103.27248 l -2.187223,2.11666 11.147779,26.52889 11.147778,26.49362 1.446389,0.38805 c 5.397501,1.48167 47.730839,12.065 49.494729,12.41778 l 2.2225,0.42333 2.01083,-1.55222 c 3.21028,-2.43416 15.83972,-15.27528 28.46917,-28.8925 6.38528,-6.87917 11.92389,-12.84111 12.24139,-13.22917 0.635,-0.70555 0.45861,-1.16416 -5.46806,-16.22778 -11.60639,-29.49222 -16.47472,-40.886943 -17.92111,-42.05111 -0.24694,-0.211666 -2.75167,-0.635 -5.57389,-0.9525 -7.19667,-0.846666 -39.86389,-5.115278 -40.81639,-5.326945 -0.38806,-0.105833 -0.98778,-0.246944 -1.27,-0.388055 -0.28222,-0.105833 -0.56445,-0.03528 -0.635,0.141111 z m 47.55445,8.890001 c 1.05833,2.257778 -2.15195,34.007778 -3.77473,37.006388 -0.21166,0.42334 -0.59972,0.74084 -0.84666,0.74084 -1.05834,0 -11.88861,-7.12612 -23.38917,-15.381116 -10.30111,-7.408334 -17.63889,-12.55889 -19.33222,-13.51139 -2.64584,-1.516944 1.34055,1.552223 16.05139,12.311946 17.63889,12.87639 27.86944,21.16667 27.86944,22.50722 0,0.35278 -1.05833,4.40973 -2.32833,9.06639 -4.19806,15.48695 -6.06778,22.50723 -7.51417,28.64556 -3.35139,14.07583 -0.52917,5.715 6.31472,-18.87361 2.15195,-7.69056 4.16278,-14.85195 4.445,-15.875 0.42334,-1.44639 0.70556,-1.83445 1.27,-1.83445 0.38806,0 3.77473,1.44639 7.47889,3.21028 9.73667,4.65667 13.22917,5.715 16.05139,4.86833 1.23473,-0.35277 0.70556,1.27 -1.19944,3.77473 -6.27945,8.14916 -30.72695,34.50167 -34.88973,37.57083 -0.81138,0.635 -1.83444,1.02306 -2.46944,1.02306 -0.67028,0 -1.905,0.49389 -3.03389,1.23472 -2.15194,1.34056 -2.82222,1.51694 -2.82222,0.635 0,-0.3175 -0.38806,-1.09361 -0.88195,-1.72861 -1.30527,-1.69333 -9.66611,-8.78417 -17.25083,-14.605 -15.62806,-11.95917 -21.025557,-16.51 -21.025557,-17.67417 0,-1.02306 7.302497,-3.84528 29.104167,-11.25361 15.48695,-5.22111 21.48417,-7.40834 21.20195,-7.65528 -0.38806,-0.38806 -19.33223,5.57389 -39.12306,12.31195 -6.77333,2.29305 -12.594168,4.16277 -12.982224,4.16277 -0.776111,0 -0.881944,-1.02305 -0.3175,-3.35139 0.493889,-2.18722 1.622778,-9.77194 2.822223,-19.05 1.905001,-14.922498 2.116671,-16.47472 3.210281,-22.119165 1.19944,-6.455834 2.18722,-9.807223 3.03389,-10.618612 1.72861,-1.552222 17.21555,-4.1275 34.32528,-5.715 8.50194,-0.776111 8.53722,-0.776111 14.2875,-0.740834 l 5.29166,0.03528 z m -58.10251,5.185833 c 0,6.314723 -6.138331,50.553055 -7.267219,52.387505 -0.705556,1.12889 -2.786945,-0.38806 -10.054168,-7.33778 -5.3975,-5.11528 -9.560278,-8.60778 -11.359445,-9.56028 -0.635,-0.3175 -1.658056,-0.56444 -2.257778,-0.52916 -1.27,0.0353 -1.375833,-0.14112 -0.776111,-1.48167 0.3175,-0.67028 0.282222,-1.23472 -0.246944,-2.64584 -0.635001,-1.76388 -0.635001,-1.83444 0.105833,-3.31611 1.128889,-2.29305 5.362222,-6.914441 12.135556,-13.158608 C 93.680169,81.364976 100.55934,75.57942 101.68823,75.57942 c 0.56444,0 0.67027,0.246944 0.67027,1.658055 z m -2.857497,61.947785 c 6.914447,4.55083 28.469167,20.46111 34.078337,25.18833 5.08,4.30389 2.57528,4.65667 -10.12472,1.48167 -8.43139,-2.08139 -11.92389,-3.52778 -9.87778,-4.09222 1.09361,-0.28223 0.98778,-0.59973 -0.74084,-2.01084 -2.11666,-1.72861 -5.08,-3.03389 -6.77333,-2.99861 l -1.41111,0.0353 1.23472,0.35278 c 2.18722,0.59972 2.78695,0.9525 3.35139,1.83444 0.81139,1.19945 0.21167,2.2225 -1.44639,2.54 -2.46944,0.45861 -13.088055,-2.15194 -15.416389,-3.81 -0.564444,-0.42333 -1.340555,-1.44639 -1.728611,-2.29305 -0.635,-1.41112 -0.670278,-1.86973 -0.3175,-4.445 0.9525,-7.09084 3.527778,-14.00528 5.256389,-14.00528 0.282223,0 2.046112,0.98777 3.915834,2.2225 z"
       id="path1"
       style="stroke-width:0.0352778" />
    <path
       d="m 148.46656,78.860253 c 2.15195,1.058334 2.61056,2.010834 1.62278,3.386667 -1.44639,1.905 -5.25639,3.210278 -11.46528,3.951111 -2.01083,0.211667 -3.73944,0.529167 -3.91583,0.670278 -0.28222,0.246945 4.26861,3.598334 6.985,5.080001 l 1.76389,0.987777 -1.27,-1.164166 c -0.67028,-0.670278 -1.76389,-1.622778 -2.36361,-2.187223 -2.08139,-1.799167 -1.55223,-2.151944 3.56305,-2.469444 4.40972,-0.282223 8.36084,-3.069167 8.36084,-5.926667 0,-1.728612 -1.19945,-2.822223 -3.42195,-3.033889 l -1.69333,-0.176389 z"
       id="path2"
       style="stroke-width:0.0352778" />
    <path
       d="m 123.27823,100.27387 c -2.43417,0.9525 -2.50473,4.79777 -0.21167,9.59555 1.76389,3.70417 3.66889,5.92667 5.04472,5.92667 1.905,0 4.93889,-3.38667 4.93889,-5.53861 0,-1.44639 -1.23472,-3.95111 -3.13972,-6.38528 -2.25778,-2.8575 -4.90361,-4.268612 -6.63222,-3.59833 z m 3.45722,2.11666 c 2.46944,1.27 4.86833,5.29167 4.90361,8.18445 0,2.15194 -1.27,3.81 -2.96333,3.81 -1.62278,0 -3.03389,-1.62278 -4.97417,-5.715 -1.97556,-4.19806 -2.32833,-5.82084 -1.41111,-6.49111 0.9525,-0.70556 2.82222,-0.59973 4.445,0.21166 z"
       id="path3"
       style="stroke-width:0.0352778" />
    <path
       d="m 110.22545,105.95359 c -1.76389,0.52916 -3.45722,3.13972 -2.01084,3.13972 0.28223,0 1.23473,-0.49389 2.08139,-1.05833 1.69334,-1.16417 3.35139,-1.37584 4.05695,-0.52917 1.02305,1.23472 0.81139,3.70417 -0.70556,8.46667 -0.77611,2.50472 -1.55222,5.32694 -1.65805,6.20889 -0.17639,1.44639 -0.10584,1.69333 0.52916,1.86972 0.38806,0.14111 1.51695,-0.0706 2.54,-0.45861 2.15195,-0.81139 6.38528,-3.28084 7.09084,-4.1275 0.45861,-0.52917 0.42333,-0.56445 -0.35278,-0.3175 -0.45861,0.14111 -2.25778,0.9525 -4.02167,1.76389 -1.72861,0.84666 -3.38666,1.44639 -3.63361,1.34055 -0.81139,-0.28222 -0.56444,-1.69333 1.09361,-6.87916 1.79917,-5.64445 1.97556,-7.23195 0.81139,-8.32556 -1.51694,-1.41111 -3.45722,-1.76389 -5.82083,-1.09361 z"
       id="path4"
       style="stroke-width:0.0352778" />
    <path
       d="m 137.42462,135.79859 c 0.52916,2.96333 3.175,9.98361 3.73944,9.98361 0.635,0 -0.81139,-5.36222 -2.50472,-9.10167 -1.09361,-2.46944 -1.55222,-2.82222 -1.23472,-0.88194 z"
       id="path5"
       style="stroke-width:0.0352778" />
    <path
       d="m 163.21267,137.03331 c -0.91722,0.49389 -3.35139,2.82222 -3.35139,3.175 0,0.14111 0.67028,-0.21166 1.51695,-0.77611 2.61055,-1.83444 3.31611,-1.76389 6.56167,0.59972 0.81139,0.59973 0.84666,0.59973 0.45861,-0.0706 -0.70556,-1.30528 -3.28084,-3.38667 -4.19806,-3.35139 -0.14111,0 -0.59972,0.21167 -0.98778,0.42333 z"
       id="path6"
       style="stroke-width:0.0352778" />
    <path
       d="m 121.97295,137.77415 c 0.49389,1.65805 2.04611,5.15055 3.70417,8.36083 2.99861,5.82083 3.63361,6.13833 4.83305,2.39889 1.02306,-3.10445 1.27,-5.29167 0.81139,-6.73806 -0.56444,-1.65805 -1.02306,-1.97555 -3.42194,-2.36361 -1.16417,-0.17639 -2.99862,-0.81139 -4.1275,-1.37583 -1.97556,-1.02306 -2.04612,-1.02306 -1.79917,-0.28222 z m 7.16139,3.66888 c 1.02305,0.84667 1.30528,2.82223 0.59972,4.44501 -0.635,1.5875 -1.62278,1.72861 -2.50472,0.38805 -0.91722,-1.44639 -1.23472,-2.89278 -0.84667,-3.95111 0.59972,-1.5875 1.51695,-1.86972 2.75167,-0.88195 z"
       id="path7"
       style="stroke-width:0.0352778" />
    <path
       d="m 85.425169,100.02692 c -2.928056,1.16417 -4.021667,1.83445 -5.256389,3.24556 -1.940278,2.2225 -1.199445,4.33916 2.081389,5.99722 1.905,0.9525 5.291667,1.55222 5.291667,0.91722 0,-0.21166 -0.141112,-0.38805 -0.352778,-0.38805 -0.529167,0 -0.423334,-2.18723 0.176389,-3.88056 1.058333,-2.99861 2.398889,-5.64444 2.8575,-5.64444 0.670278,0 0.9525,1.48166 0.776111,4.02166 -0.211667,2.36361 -0.987778,4.26861 -2.187222,5.22111 -1.023056,0.84667 -0.282223,0.77612 1.093611,-0.0705 1.834444,-1.09361 2.681111,-3.175 2.504722,-6.10306 -0.105833,-2.15194 -0.246944,-2.54 -1.093611,-3.28083 -1.27,-1.093612 -3.245556,-1.093612 -5.891389,-0.0353 z m -1.516945,2.64583 c 1.446389,0.91723 1.164167,4.69195 -0.423333,5.43278 -2.046111,0.91723 -3.774723,-0.88194 -2.8575,-3.03389 0.246944,-0.635 0.917222,-1.48166 1.446389,-1.905 1.058333,-0.84666 1.199444,-0.88194 1.834444,-0.49389 z"
       id="path8"
       style="stroke-width:0.0352778" />
  </g>
</svg>
