<?xml version="1.0" encoding="UTF-8" standalone="no"?>
<!-- Created with Inkscape (http://www.inkscape.org/) -->

<svg
   width="112.5173mm"
   height="106.50413mm"
   viewBox="0 0 112.5173 106.50413"
   version="1.1"
   id="svg1"
   inkscape:version="1.4.2 (f4327f4, 2025-05-13)"
   sodipodi:docname="d4.svg"
   xmlns:inkscape="http://www.inkscape.org/namespaces/inkscape"
   xmlns:sodipodi="http://sodipodi.sourceforge.net/DTD/sodipodi-0.dtd"
   xmlns="http://www.w3.org/2000/svg"
   xmlns:svg="http://www.w3.org/2000/svg">
  <sodipodi:namedview
     id="namedview1"
     pagecolor="#ffffff"
     bordercolor="#000000"
     borderopacity="0.25"
     inkscape:showpageshadow="2"
     inkscape:pageopacity="0.0"
     inkscape:pagecheckerboard="0"
     inkscape:deskcolor="#d1d1d1"
     inkscape:document-units="mm"
     inkscape:zoom="1.0022096"
     inkscape:cx="277.88598"
     inkscape:cy="254.93669"
     inkscape:window-width="3440"
     inkscape:window-height="1369"
     inkscape:window-x="-8"
     inkscape:window-y="-8"
     inkscape:window-maximized="1"
     inkscape:current-layer="layer1" />
  <defs
     id="defs1" />
  <g
     inkscape:label="Layer 1"
     inkscape:groupmode="layer"
     id="layer1"
     transform="translate(-31.490416,-81.08474)">
    <path
       d="m 88.362034,85.353861 c -5.432778,6.985001 -28.257502,36.618339 -43.285836,56.232779 -7.831667,10.19528 -13.758334,18.23862 -13.581946,18.415 0.176389,0.17639 5.89139,2.43417 12.664724,5.04473 6.808611,2.61055 22.683612,8.74889 35.27778,13.6525 l 22.930554,8.89 1.79917,-0.88195 c 2.54,-1.27 19.96722,-11.28889 25.18833,-14.53444 5.11528,-3.175 10.79501,-7.05556 11.14778,-7.65528 0.14111,-0.21167 0.10584,-0.3175 -0.0706,-0.21167 -0.17639,0.10584 -6.0325,3.59834 -13.05278,7.79639 -13.26444,7.90223 -18.45027,10.83028 -21.55472,12.17084 -2.11667,0.88194 -2.68111,0.9525 -3.24555,0.3175 -0.21167,-0.28223 -0.77612,-5.43278 -1.27,-11.7475 -0.45862,-6.17362 -1.340561,-16.96862 -1.905005,-23.95362 -3.563056,-42.8625 -4.903611,-61.736112 -4.480278,-62.794445 0.176389,-0.529167 0.3175,-0.529167 0.811389,-0.141111 1.199444,0.987777 12.029724,17.921116 32.173334,50.235556 17.25084,27.65778 15.76917,25.36473 16.08667,24.90611 0.59973,-1.02305 -20.21416,-34.43111 -37.95889,-60.88944 C 97.252034,87.082473 93.018701,81.191083 92.313145,81.08525 c -0.3175,-0.03528 -1.975555,1.763889 -3.951111,4.268611 z m 4.445,0.811389 c 0.105833,1.516945 0.846667,10.512779 1.622778,20.03778 1.799167,21.9075 3.986389,48.29528 5.291667,64.34667 0.599721,6.84389 0.952501,12.59417 0.846671,12.77056 -0.10584,0.17639 -0.56445,0.3175 -1.02306,0.3175 -3.175,0 -43.003614,-14.53445 -58.490559,-21.34306 -3.880556,-1.72861 -5.538612,-2.75167 -5.538612,-3.45722 0,-2.71639 11.077223,-18.415 17.63889,-25.04723 2.610556,-2.57527 2.822223,-2.71639 4.30389,-2.71639 1.128889,0 1.763889,-0.21166 2.2225,-0.70555 0.846666,-0.91722 0.564444,-1.12889 -0.811389,-0.635 -0.846667,0.3175 -1.234723,0.3175 -1.516945,0.0353 -0.670278,-0.67028 1.834445,-4.51556 10.089445,-15.45167 7.902223,-10.51278 21.660557,-28.151667 23.424446,-30.091945 0.599722,-0.635 1.234723,-1.093611 1.411111,-0.987777 0.141112,0.105833 0.388056,1.446388 0.529167,2.928055 z"
       id="path24"
       style="stroke-width:0.0352778" />
    <path
       d="m 62.856199,124.40636 c -0.493889,1.51695 -0.246945,4.83306 0.705556,9.48973 0.529166,2.61055 1.093611,5.00944 1.305277,5.29166 0.423334,0.67028 0.105834,-12.73527 -0.352777,-14.2875 -0.352778,-1.27 -1.340556,-1.5875 -1.658056,-0.49389 z"
       id="path25"
       style="stroke-width:0.0352778" />
    <path
       d="m 86.845089,133.75497 c -2.716389,1.62278 -6.561667,4.44501 -6.35,4.65667 0.352778,0.35278 8.995834,-5.18583 8.995834,-5.78555 0,-0.35278 -0.670278,-0.0706 -2.645834,1.12888 z"
       id="path26"
       style="stroke-width:0.0352778" />
    <path
       d="m 68.818144,138.62331 c -1.5875,1.41111 -3.033889,2.64583 -3.245556,2.71639 -0.282222,0.10583 -0.3175,0.49389 -0.141111,1.19944 0.423333,1.55222 1.411111,1.34056 2.892778,-0.59972 1.693333,-2.29306 3.951111,-5.92667 3.633611,-5.92667 -0.176389,0.0353 -1.5875,1.19945 -3.139722,2.61056 z"
       id="path27"
       style="stroke-width:0.0352778" />
    <path
       d="m 70.440922,145.89053 c -0.282223,0.35278 -2.151945,2.64583 -4.162778,5.11528 -2.010834,2.46944 -4.056945,5.32695 -4.550834,6.35 -1.305278,2.64583 -1.023056,3.38667 1.834445,4.7625 1.834444,0.88194 2.469444,1.41111 3.210277,2.68111 0.529167,0.91722 1.023056,2.36361 1.128889,3.35139 0.176389,1.94028 0.493889,1.94028 1.516945,-0.0705 0.388056,-0.77612 1.340556,-2.04612 2.116667,-2.78695 l 1.446389,-1.41111 -0.881945,-0.3175 c -1.164166,-0.45861 -1.658055,-2.01083 -1.658055,-5.50333 0,-2.54 0.458611,-8.5725 0.846666,-11.74751 0.176389,-1.26999 -0.07056,-1.41111 -0.846666,-0.42333 z m -0.917223,7.83167 c -0.105833,3.91583 -2.116666,7.33778 -4.339167,7.33778 -3.421944,0 -2.2225,-5.89139 1.799167,-8.81945 2.187223,-1.5875 2.575278,-1.34055 2.54,1.48167 z"
       id="path28"
       style="stroke-width:0.0352778" />
    <path
       d="m 119.44176,131.28553 c -0.81139,1.79917 -1.27,5.18583 -0.88195,6.6675 0.24695,0.9525 2.8575,4.05695 3.45723,4.05695 0.35277,0 0.0353,-0.56445 -1.65806,-2.96334 -1.5875,-2.18722 -1.55222,-2.96333 0.14111,-4.55083 1.69333,-1.55222 1.97556,-2.39889 1.37583,-3.66889 -0.77611,-1.62278 -1.62277,-1.44639 -2.43416,0.45861 z"
       id="path35"
       style="stroke-width:0.0352778" />
    <path
       d="m 104.69565,135.55414 c -0.77611,1.69334 -0.88195,5.08 -0.24695,7.26723 1.05834,3.59833 2.92806,4.40972 4.7625,2.04611 l 0.91722,-1.19945 -1.16416,0.21167 c -2.46945,0.49389 -4.23334,-2.82222 -3.81,-7.09084 0.14111,-1.19944 0.17639,-2.18722 0.10583,-2.18722 -0.0706,0 -0.3175,0.42334 -0.56444,0.9525 z"
       id="path36"
       style="stroke-width:0.0352778" />
    <path
       d="m 119.82981,148.3247 c 0,0.91722 2.43417,10.54805 3.56306,14.04055 0.98778,3.03389 1.51694,2.89278 1.23472,-0.3175 -0.45861,-4.58611 -2.68111,-12.065 -4.09222,-13.75833 l -0.67028,-0.81139 z"
       id="path37"
       style="stroke-width:0.0352778" />
  </g>
</svg>
