<?xml version="1.0" encoding="UTF-8" standalone="no"?>
<!-- Created with Inkscape (http://www.inkscape.org/) -->

<svg
   width="92.478752mm"
   height="85.338142mm"
   viewBox="0 0 92.478752 85.338142"
   version="1.1"
   id="svg1"
   inkscape:version="1.4.2 (f4327f4, 2025-05-13)"
   sodipodi:docname="d6.svg"
   xmlns:inkscape="http://www.inkscape.org/namespaces/inkscape"
   xmlns:sodipodi="http://sodipodi.sourceforge.net/DTD/sodipodi-0.dtd"
   xmlns="http://www.w3.org/2000/svg"
   xmlns:svg="http://www.w3.org/2000/svg">
  <sodipodi:namedview
     id="namedview1"
     pagecolor="#ffffff"
     bordercolor="#000000"
     borderopacity="0.25"
     inkscape:showpageshadow="2"
     inkscape:pageopacity="0.0"
     inkscape:pagecheckerboard="0"
     inkscape:deskcolor="#d1d1d1"
     inkscape:document-units="mm"
     inkscape:zoom="1.0022096"
     inkscape:cx="354.71622"
     inkscape:cy="428.55307"
     inkscape:window-width="3440"
     inkscape:window-height="1369"
     inkscape:window-x="-8"
     inkscape:window-y="-8"
     inkscape:window-maximized="1"
     inkscape:current-layer="layer1" />
  <defs
     id="defs1" />
  <g
     inkscape:label="Layer 1"
     inkscape:groupmode="layer"
     id="layer1"
     transform="translate(-11.112516,-35.189572)">
    <path
       d="m 51.380107,36.212628 c -3.668889,0.529167 -12.558889,1.869722 -19.755557,2.963333 -7.161389,1.093612 -14.005278,2.151945 -15.169445,2.39889 l -2.116667,0.423333 -0.246944,1.763889 c -0.458611,3.069167 -3.210278,59.690007 -2.963334,60.113337 0.105834,0.17639 1.763889,0.9525 3.633612,1.72861 1.905,0.77611 10.936111,4.51556 20.073056,8.29028 15.381113,6.38528 16.721668,6.87917 17.815279,6.56167 0.670278,-0.21167 12.029723,-3.10445 25.294169,-6.45584 13.264445,-3.35139 24.235834,-6.24416 24.376944,-6.42055 0.24695,-0.24695 0.84667,-28.469172 1.19945,-56.409173 l 0.0706,-5.291667 -21.166666,-5.362223 C 70.500664,37.517906 60.55233,35.189572 59.670386,35.189572 c -0.881945,0 -4.586112,0.458611 -8.290279,1.023056 z M 26.579828,46.584295 c 17.00389,5.150556 23.636113,7.549445 24.482779,8.854723 0.388056,0.564445 0.670278,2.293056 0.881945,5.503334 0.599722,9.419167 0.105833,56.726668 -0.599722,57.432228 -0.493889,0.49389 -27.693058,-10.40695 -34.713336,-13.93473 -3.210278,-1.62277 -2.998611,-0.49388 -2.963334,-16.368885 0,-12.311946 1.199445,-42.368614 1.728612,-44.061948 0.105833,-0.211666 0.388055,-0.423333 0.705555,-0.423333 0.282223,0 5.009445,1.340556 10.477501,2.998611 z m 75.353342,0.599723 c 0.635,0.635 0.59972,58.949172 -0.0353,59.478332 -0.42334,0.35278 -29.809726,7.33778 -40.957504,9.73667 -4.93889,1.09361 -5.750278,1.12889 -5.997223,0.28222 -0.881944,-2.75166 -1.305278,-60.325 -0.458611,-61.030555 0.529167,-0.458611 8.925278,-2.046111 25.470557,-4.833056 9.06639,-1.516945 18.944168,-3.386667 21.378331,-4.021667 0.10584,0 0.35278,0.141111 0.59973,0.388056 z"
       id="path29"
       style="stroke-width:0.0352778" />
    <path
       d="m 30.107606,66.904297 c -2.54,1.27 -4.550834,4.691944 -5.573889,9.560278 -0.776111,3.668889 -0.493889,10.583334 0.564444,13.617223 1.481667,4.198056 5.221112,8.184445 7.231945,7.690556 1.234722,-0.3175 2.928056,-1.869722 3.81,-3.527778 0.670278,-1.234722 0.776111,-2.010833 0.776111,-5.150556 0,-3.457222 -0.07056,-3.845278 -1.058333,-5.644445 -0.564444,-1.058333 -1.5875,-2.293055 -2.257778,-2.716389 -1.552222,-1.058333 -2.151944,-1.023055 -0.987778,0.03528 2.081389,1.940278 3.704167,7.055556 3.316112,10.442223 -0.246945,2.116667 -1.375834,4.374445 -2.54,5.150556 -2.222501,1.446389 -5.185834,-1.234722 -6.879168,-6.173612 -1.481666,-4.480278 -0.599722,-8.501945 2.222501,-9.877778 1.375833,-0.705556 1.411111,-0.740833 0.493888,-0.740833 -1.481666,0 -3.386666,-0.917223 -3.739444,-1.834445 -0.881945,-2.434167 3.351389,-8.572501 7.3025,-10.442223 0.599723,-0.3175 1.128889,-0.670278 1.128889,-0.846667 0,-0.564444 -2.328333,-0.282222 -3.81,0.458612 z"
       id="path30"
       style="stroke-width:0.0352778" />
    <path
       d="m 77.485665,71.031797 c -1.728612,0.811389 -4.62139,3.845278 -5.362223,5.644445 -0.705556,1.693333 -0.670278,5.185833 0.07055,6.914445 0.317501,0.740833 1.763889,2.610555 3.210278,4.1275 1.446389,1.516944 2.610556,3.069167 2.610556,3.457222 0,0.423334 -1.199444,1.799167 -3.175,3.598334 -2.328333,2.116667 -3.069167,2.998611 -2.716389,3.210278 1.058333,0.564444 9.701389,-0.9525 12.841112,-2.257778 0.917222,-0.388056 0.776111,-0.423334 -1.763889,-0.635 -3.316111,-0.246945 -4.233334,-0.881945 -3.316111,-2.187223 0.352777,-0.458611 0.846666,-1.164166 1.164166,-1.5875 0.3175,-0.458611 0.493889,-1.023055 0.388056,-1.340555 -0.141111,-0.282223 -1.552222,-1.375834 -3.210278,-2.434167 -2.257778,-1.446389 -3.210278,-2.328334 -3.951111,-3.598334 -1.728612,-2.928055 -1.516945,-6.632222 0.458611,-8.995834 1.905,-2.257778 4.903611,-2.998611 9.242778,-2.293055 2.2225,0.352778 2.187222,0 -0.176389,-1.199445 -2.257778,-1.093611 -4.515556,-1.27 -6.314722,-0.423333 z"
       id="path31"
       style="stroke-width:0.0352778" />
  </g>
</svg>
