<?xml version="1.0" encoding="UTF-8" standalone="no"?>
<!-- Created with Inkscape (http://www.inkscape.org/) -->

<svg
   width="85.065582mm"
   height="76.485489mm"
   viewBox="0 0 85.065582 76.485489"
   version="1.1"
   id="svg1"
   inkscape:version="1.4.2 (f4327f4, 2025-05-13)"
   sodipodi:docname="d8.svg"
   xmlns:inkscape="http://www.inkscape.org/namespaces/inkscape"
   xmlns:sodipodi="http://sodipodi.sourceforge.net/DTD/sodipodi-0.dtd"
   xmlns="http://www.w3.org/2000/svg"
   xmlns:svg="http://www.w3.org/2000/svg">
  <sodipodi:namedview
     id="namedview1"
     pagecolor="#ffffff"
     bordercolor="#000000"
     borderopacity="0.25"
     inkscape:showpageshadow="2"
     inkscape:pageopacity="0.0"
     inkscape:pagecheckerboard="0"
     inkscape:deskcolor="#d1d1d1"
     inkscape:document-units="mm"
     inkscape:zoom="1.0022096"
     inkscape:cx="49.390866"
     inkscape:cy="299.83748"
     inkscape:window-width="3440"
     inkscape:window-height="1369"
     inkscape:window-x="-8"
     inkscape:window-y="-8"
     inkscape:window-maximized="1"
     inkscape:current-layer="layer1" />
  <defs
     id="defs1" />
  <g
     inkscape:label="Layer 1"
     inkscape:groupmode="layer"
     id="layer1"
     transform="translate(-91.810433,-69.056238)">
    <path
       d="m 159.29852,69.200618 c -0.67027,0.07056 -7.40833,0.352778 -14.99305,0.670278 -7.54945,0.282222 -16.93334,0.705556 -20.81389,0.881945 -19.86139,0.987777 -29.068894,1.516944 -30.338894,1.728611 -1.375834,0.211666 -1.411111,0.246944 -1.305278,1.622778 0.3175,4.374444 6.35,40.85167 9.595552,58.03195 2.50473,13.37028 2.54,13.40555 2.68112,13.40555 0.56444,0 49.14194,-3.28083 54.82167,-3.70416 8.46666,-0.635 15.45166,-1.44639 16.75694,-1.94028 1.23472,-0.45861 1.41111,-1.16417 0.91722,-3.31611 -0.24694,-0.98778 -1.23472,-5.67972 -2.18722,-10.44222 -3.06917,-15.09889 -3.88055,-18.80306 -4.79778,-22.04862 -1.27,-4.515553 -2.18722,-6.526387 -2.92805,-6.526387 -0.81139,0 -1.02306,-0.599722 -0.635,-1.940277 0.84666,-3.03389 -0.52917,-13.370279 -3.42195,-25.858613 -0.21166,-0.811389 -0.28222,-0.811389 -3.35139,-0.564445 z m -10.05416,2.257778 c 0.14111,0.211667 -1.65806,1.27 -4.16278,2.434167 -2.39889,1.128889 -4.51556,2.257778 -4.65667,2.504722 -0.3175,0.529167 0.21167,0.388056 5.11528,-1.481666 10.58333,-4.021667 12.73528,-4.515556 13.44083,-2.963334 0.35278,0.705556 0.21167,1.164167 -0.70555,2.892778 -1.55222,2.8575 -7.83167,10.512779 -8.71361,10.65389 -0.42334,0.07055 -6.42056,-1.340556 -13.40556,-3.104445 -12.3825,-3.104445 -22.36611,-5.3975 -25.54111,-5.785556 l -1.5875,-0.211667 1.19944,0.564445 c 0.67028,0.282222 7.33778,2.116667 14.81667,4.021667 14.2875,3.633611 19.79083,5.256389 21.13139,6.173611 0.67028,0.493889 0.70555,0.670278 0.38805,1.340556 -0.77611,1.446389 -7.86694,10.265834 -20.10833,24.941386 -14.11111,16.96862 -19.15583,23.24806 -18.94417,23.45973 0.17639,0.17639 7.12611,-7.86695 25.92917,-30.12723 8.11389,-9.595552 15.02833,-17.603608 15.38111,-17.815275 0.56445,-0.3175 0.84667,-0.141111 1.905,1.023056 1.76389,2.046111 4.93889,7.408333 9.34861,15.874999 7.62,14.53445 10.44223,19.40278 11.53584,19.75556 0.84667,0.24694 1.34055,1.55222 1.62278,4.16278 0.14111,1.12889 0.52916,2.96333 0.91722,4.02166 1.30528,3.77473 0.88194,4.51556 -3.10445,5.36223 -4.19805,0.88194 -47.69555,3.95111 -57.25583,4.02166 -6.77334,0.0706 -8.50195,-0.21166 -8.99584,-1.44639 -0.49389,-1.30527 -11.818053,-64.699445 -11.923887,-66.921945 l -0.07055,-1.058333 h 20.284727 c 19.93195,0 20.32,-0.03528 23.10695,-0.811389 1.5875,-0.423333 4.7625,-0.987778 7.05555,-1.27 5.46806,-0.635 5.75028,-0.635 5.99723,-0.211667 z"
       id="path32"
       style="stroke-width:0.0352778" />
    <path
       d="m 106.91102,89.52062 c -1.51694,0.529166 -3.70417,2.081389 -4.51556,3.175 -1.09361,1.481667 -0.42333,3.104444 2.75167,6.6675 2.75167,3.06917 4.7625,6.45583 4.7625,8.04333 0,0.49389 0.3175,1.5875 0.67028,2.39889 0.91722,1.94028 2.61055,2.54 5.46805,1.905 5.43278,-1.19944 8.99584,-6.31472 6.31473,-9.03111 -1.97556,-1.97555 -3.56306,-2.751665 -6.0325,-2.963332 l -2.36361,-0.211667 0.10583,-1.234722 c 0.38805,-5.009445 0.28222,-6.279445 -0.635,-7.231945 -1.72861,-1.869722 -4.02167,-2.398889 -6.52639,-1.516944 z m 4.48028,1.023055 c 0.88194,0.458611 1.69333,2.398889 1.69333,4.021667 0,2.575278 -1.905,5.256389 -4.05694,5.679718 -2.32834,0.42334 -4.7625,-1.869718 -4.7625,-4.444996 0,-3.421944 4.445,-6.702778 7.12611,-5.256389 z m 6.6675,10.583335 c 2.08139,0.70555 3.84528,2.82222 3.84528,4.62139 0,1.30528 -1.48167,3.4925 -2.82223,4.19805 -1.48166,0.81139 -4.23333,0.88195 -5.64444,0.14112 -2.11667,-1.09362 -2.68111,-3.73945 -1.37583,-6.42056 0.74083,-1.51695 1.41111,-2.08139 3.10444,-2.61056 1.30528,-0.38805 1.55222,-0.35277 2.89278,0.0706 z"
       id="path33"
       style="stroke-width:0.0352778" />
    <path
       d="m 143.84686,119.25979 c -2.36362,1.97555 -3.98639,8.29028 -2.75167,10.65389 0.81139,1.62278 3.13972,2.61055 6.13833,2.64583 3.10445,0.0353 4.79778,-0.74083 6.17361,-2.78694 1.27,-1.94028 2.78695,-2.46945 4.7625,-1.69334 2.04612,0.84667 2.43417,1.97556 1.51695,4.55084 -0.38806,1.09361 -0.635,1.97555 -0.52917,1.97555 0.0706,0 0.84667,-0.9525 1.72861,-2.15194 2.57528,-3.4925 2.18723,-4.58611 -2.04611,-5.78556 -2.96333,-0.84666 -4.23333,-0.52916 -6.31472,1.62278 -2.11667,2.18722 -3.70417,2.89278 -6.45583,2.89278 -2.50473,0.0353 -4.16278,-0.77611 -4.79778,-2.29306 -0.52917,-1.27 0.38805,-3.21028 2.99861,-6.17361 1.05833,-1.23472 2.01083,-2.54 2.15194,-2.92806 0.49389,-1.5875 -0.9525,-1.905 -2.57527,-0.52916 z"
       id="path34"
       style="stroke-width:0.0352778" />
  </g>
</svg>
